<svg xmlns="http://www.w3.org/2000/svg" xmlns:xlink="http://www.w3.org/1999/xlink" contentStyleType="text/css" data-diagram-type="CLASS" height="614px" preserveAspectRatio="none" style="width:976px;height:614px;background:#FFFFFF;" version="1.1" viewBox="0 0 976 614" width="976px" zoomAndPan="magnify"><?plantuml 1.2026.6?><defs/><g><!--class CredentialSet--><g class="entity" data-qualified-name="CredentialSet" data-source-line="8" id="ent0001"><rect fill="#F1F1F1" height="65.9375" rx="4" ry="4" style="stroke:#333333;stroke-width:0.5;" width="111.7324" x="252.28" y="12.95"/><ellipse cx="266.28" cy="27.95" fill="#ADD1B2" rx="10" ry="10" style="stroke:#181818;stroke-width:1;"/><path d="M268.1081,32.2 Q267.7019,32.4031 267.2488,32.5125 Q266.7956,32.6219 266.3113,32.6219 Q264.53,32.6219 263.5925,31.4656 Q262.6706,30.2938 262.6706,28.0906 Q262.6706,25.8719 263.5925,24.7156 Q264.53,23.5438 266.3113,23.5438 Q266.7956,23.5438 267.2488,23.6531 Q267.7175,23.7469 268.1081,23.9656 L268.1081,25.8875 Q267.6706,25.4813 267.2488,25.2938 Q266.8269,25.0906 266.3894,25.0906 Q265.4363,25.0906 264.9519,25.8563 Q264.4675,26.6063 264.4675,28.0906 Q264.4675,29.5594 264.9519,30.3094 Q265.4363,31.0594 266.3894,31.0594 Q266.8269,31.0594 267.2488,30.8719 Q267.6706,30.6844 268.1081,30.2781 L268.1081,32.2 Z " fill="#000000"/><text fill="#1A1A1A" font-family="sans-serif" font-size="12" lengthAdjust="spacing" textLength="81.7324" x="279.28" y="32.1043">CredentialSet</text><line style="stroke:#333333;stroke-width:0.5;" x1="253.28" x2="363.0124" y1="42.95" y2="42.95"/><text fill="#000000" font-family="sans-serif" font-size="12" lengthAdjust="spacing" textLength="47.8066" x="258.28" y="58.0887">account</text><text fill="#000000" font-family="sans-serif" font-size="12" lengthAdjust="spacing" textLength="20.3555" x="258.28" y="72.0574">tier</text></g><!--class SecretPart--><g class="entity" data-qualified-name="SecretPart" data-source-line="12" id="ent0002"><rect fill="#F1F1F1" height="65.9375" rx="4" ry="4" style="stroke:#333333;stroke-width:0.5;" width="403.9688" x="145.16" y="167.82"/><ellipse cx="311.7205" cy="182.82" fill="#ADD1B2" rx="10" ry="10" style="stroke:#181818;stroke-width:1;"/><path d="M313.5487,187.07 Q313.1424,187.2731 312.6893,187.3825 Q312.2362,187.4919 311.7518,187.4919 Q309.9705,187.4919 309.033,186.3356 Q308.1112,185.1638 308.1112,182.9606 Q308.1112,180.7419 309.033,179.5856 Q309.9705,178.4138 311.7518,178.4138 Q312.2362,178.4138 312.6893,178.5231 Q313.158,178.6169 313.5487,178.8356 L313.5487,180.7575 Q313.1112,180.3513 312.6893,180.1638 Q312.2674,179.9606 311.8299,179.9606 Q310.8768,179.9606 310.3924,180.7263 Q309.908,181.4763 309.908,182.9606 Q309.908,184.4294 310.3924,185.1794 Q310.8768,185.9294 311.8299,185.9294 Q312.2674,185.9294 312.6893,185.7419 Q313.1112,185.5544 313.5487,185.1481 L313.5487,187.07 Z " fill="#000000"/><text fill="#1A1A1A" font-family="sans-serif" font-size="12" lengthAdjust="spacing" textLength="62.8477" x="330.7205" y="186.9743">SecretPart</text><line style="stroke:#333333;stroke-width:0.5;" x1="146.16" x2="548.1288" y1="197.82" y2="197.82"/><text fill="#000000" font-family="sans-serif" font-size="12" lengthAdjust="spacing" textLength="391.9688" x="151.16" y="212.9587">kind : password | totp-seed | recovery-codes | keypair | api-token</text><text fill="#000000" font-family="sans-serif" font-size="12" lengthAdjust="spacing" textLength="161.877" x="151.16" y="226.9274">restForm : plain | envelope</text></g><!--class Tier--><g class="entity" data-qualified-name="Tier" data-source-line="16" id="ent0003"><rect fill="#F1F1F1" height="79.9063" rx="4" ry="4" style="stroke:#333333;stroke-width:0.5;" width="138.2285" x="584.03" y="160.84"/><ellipse cx="637.654" cy="175.84" fill="#ADD1B2" rx="10" ry="10" style="stroke:#181818;stroke-width:1;"/><path d="M639.4821,180.09 Q639.0759,180.2931 638.6228,180.4025 Q638.1696,180.5119 637.6853,180.5119 Q635.904,180.5119 634.9665,179.3556 Q634.0446,178.1838 634.0446,175.9806 Q634.0446,173.7619 634.9665,172.6056 Q635.904,171.4338 637.6853,171.4338 Q638.1696,171.4338 638.6228,171.5431 Q639.0915,171.6369 639.4821,171.8556 L639.4821,173.7775 Q639.0446,173.3713 638.6228,173.1838 Q638.2009,172.9806 637.7634,172.9806 Q636.8103,172.9806 636.3259,173.7463 Q635.8415,174.4963 635.8415,175.9806 Q635.8415,177.4494 636.3259,178.1994 Q636.8103,178.9494 637.7634,178.9494 Q638.2009,178.9494 638.6228,178.7619 Q639.0446,178.5744 639.4821,178.1681 L639.4821,180.09 Z " fill="#000000"/><text fill="#1A1A1A" font-family="sans-serif" font-size="12" lengthAdjust="spacing" textLength="22.9805" x="656.654" y="179.9943">Tier</text><line style="stroke:#333333;stroke-width:0.5;" x1="585.03" x2="721.2585" y1="190.84" y2="190.84"/><text fill="#000000" font-family="sans-serif" font-size="12" lengthAdjust="spacing" textLength="93.2813" x="590.03" y="205.9787">restForm policy</text><text fill="#000000" font-family="sans-serif" font-size="12" lengthAdjust="spacing" textLength="102.6797" x="590.03" y="219.9474">replication policy</text><text fill="#000000" font-family="sans-serif" font-size="12" lengthAdjust="spacing" textLength="126.2285" x="590.03" y="233.9162">allowed transit paths</text></g><!--class Store--><g class="entity" data-qualified-name="Store" data-source-line="21" id="ent0004"><rect fill="#F1F1F1" height="30" rx="4" ry="4" style="stroke:#333333;stroke-width:0.5;" width="61.9805" x="316.16" y="333.71"/><ellipse cx="330.16" cy="348.71" fill="#A9DCDF" rx="10" ry="10" style="stroke:#181818;stroke-width:1;"/><path d="M329.7694,345.7881 L328.9569,349.3663 L330.5975,349.3663 L329.7694,345.7881 Z M328.7225,344.21 L330.8319,344.21 L333.1913,352.96 L331.4569,352.96 L330.9256,350.8038 L328.6131,350.8038 L328.0819,352.96 L326.3475,352.96 L328.7225,344.21 Z " fill="#000000"/><text fill="#1A1A1A" font-family="sans-serif" font-size="12" font-style="italic" lengthAdjust="spacing" textLength="31.9805" x="343.16" y="352.8643">Store</text></g><!--class AuthoritativeStore--><g class="entity" data-qualified-name="AuthoritativeStore" data-source-line="22" id="ent0005"><rect fill="#F1F1F1" height="30" rx="4" ry="4" style="stroke:#333333;stroke-width:0.5;" width="140.2969" x="7" y="456.68"/><ellipse cx="21" cy="471.68" fill="#ADD1B2" rx="10" ry="10" style="stroke:#181818;stroke-width:1;"/><path d="M22.8281,475.93 Q22.4219,476.1331 21.9688,476.2425 Q21.5156,476.3519 21.0313,476.3519 Q19.25,476.3519 18.3125,475.1956 Q17.3906,474.0238 17.3906,471.8206 Q17.3906,469.6019 18.3125,468.4456 Q19.25,467.2738 21.0313,467.2738 Q21.5156,467.2738 21.9688,467.3831 Q22.4375,467.4769 22.8281,467.6956 L22.8281,469.6175 Q22.3906,469.2113 21.9688,469.0238 Q21.5469,468.8206 21.1094,468.8206 Q20.1563,468.8206 19.6719,469.5863 Q19.1875,470.3363 19.1875,471.8206 Q19.1875,473.2894 19.6719,474.0394 Q20.1563,474.7894 21.1094,474.7894 Q21.5469,474.7894 21.9688,474.6019 Q22.3906,474.4144 22.8281,474.0081 L22.8281,475.93 Z " fill="#000000"/><text fill="#1A1A1A" font-family="sans-serif" font-size="12" lengthAdjust="spacing" textLength="110.2969" x="34" y="475.8343">AuthoritativeStore</text></g><!--class EnvelopeStore--><g class="entity" data-qualified-name="EnvelopeStore" data-source-line="23" id="ent0006"><rect fill="#F1F1F1" height="30" rx="4" ry="4" style="stroke:#333333;stroke-width:0.5;" width="117.3281" x="182.48" y="456.68"/><ellipse cx="196.48" cy="471.68" fill="#ADD1B2" rx="10" ry="10" style="stroke:#181818;stroke-width:1;"/><path d="M198.3081,475.93 Q197.9019,476.1331 197.4488,476.2425 Q196.9956,476.3519 196.5113,476.3519 Q194.73,476.3519 193.7925,475.1956 Q192.8706,474.0238 192.8706,471.8206 Q192.8706,469.6019 193.7925,468.4456 Q194.73,467.2738 196.5113,467.2738 Q196.9956,467.2738 197.4488,467.3831 Q197.9175,467.4769 198.3081,467.6956 L198.3081,469.6175 Q197.8706,469.2113 197.4488,469.0238 Q197.0269,468.8206 196.5894,468.8206 Q195.6363,468.8206 195.1519,469.5863 Q194.6675,470.3363 194.6675,471.8206 Q194.6675,473.2894 195.1519,474.0394 Q195.6363,474.7894 196.5894,474.7894 Q197.0269,474.7894 197.4488,474.6019 Q197.8706,474.4144 198.3081,474.0081 L198.3081,475.93 Z " fill="#000000"/><text fill="#1A1A1A" font-family="sans-serif" font-size="12" lengthAdjust="spacing" textLength="87.3281" x="209.48" y="475.8343">EnvelopeStore</text></g><!--class OSKeychain--><g class="entity" data-qualified-name="OSKeychain" data-source-line="24" id="ent0007"><rect fill="#F1F1F1" height="30" rx="4" ry="4" style="stroke:#333333;stroke-width:0.5;" width="101.9121" x="480.19" y="456.68"/><ellipse cx="494.19" cy="471.68" fill="#ADD1B2" rx="10" ry="10" style="stroke:#181818;stroke-width:1;"/><path d="M496.0181,475.93 Q495.6119,476.1331 495.1588,476.2425 Q494.7056,476.3519 494.2213,476.3519 Q492.44,476.3519 491.5025,475.1956 Q490.5806,474.0238 490.5806,471.8206 Q490.5806,469.6019 491.5025,468.4456 Q492.44,467.2738 494.2213,467.2738 Q494.7056,467.2738 495.1588,467.3831 Q495.6275,467.4769 496.0181,467.6956 L496.0181,469.6175 Q495.5806,469.2113 495.1588,469.0238 Q494.7369,468.8206 494.2994,468.8206 Q493.3463,468.8206 492.8619,469.5863 Q492.3775,470.3363 492.3775,471.8206 Q492.3775,473.2894 492.8619,474.0394 Q493.3463,474.7894 494.2994,474.7894 Q494.7369,474.7894 495.1588,474.6019 Q495.5806,474.4144 496.0181,474.0081 L496.0181,475.93 Z " fill="#000000"/><text fill="#1A1A1A" font-family="sans-serif" font-size="12" lengthAdjust="spacing" textLength="71.9121" x="507.19" y="475.8343">OSKeychain</text></g><!--class BrowserStore--><g class="entity" data-qualified-name="BrowserStore" data-source-line="25" id="ent0008"><rect fill="#F1F1F1" height="30" rx="4" ry="4" style="stroke:#333333;stroke-width:0.5;" width="110.8711" x="334.71" y="456.68"/><ellipse cx="348.71" cy="471.68" fill="#ADD1B2" rx="10" ry="10" style="stroke:#181818;stroke-width:1;"/><path d="M350.5381,475.93 Q350.1319,476.1331 349.6788,476.2425 Q349.2256,476.3519 348.7413,476.3519 Q346.96,476.3519 346.0225,475.1956 Q345.1006,474.0238 345.1006,471.8206 Q345.1006,469.6019 346.0225,468.4456 Q346.96,467.2738 348.7413,467.2738 Q349.2256,467.2738 349.6788,467.3831 Q350.1475,467.4769 350.5381,467.6956 L350.5381,469.6175 Q350.1006,469.2113 349.6788,469.0238 Q349.2569,468.8206 348.8194,468.8206 Q347.8663,468.8206 347.3819,469.5863 Q346.8975,470.3363 346.8975,471.8206 Q346.8975,473.2894 347.3819,474.0394 Q347.8663,474.7894 348.8194,474.7894 Q349.2569,474.7894 349.6788,474.6019 Q350.1006,474.4144 350.5381,474.0081 L350.5381,475.93 Z " fill="#000000"/><text fill="#1A1A1A" font-family="sans-serif" font-size="12" lengthAdjust="spacing" textLength="80.8711" x="361.71" y="475.8343">BrowserStore</text></g><!--class Replica--><g class="entity" data-qualified-name="Replica" data-source-line="26" id="ent0009"><rect fill="#F1F1F1" height="51.9688" rx="4" ry="4" style="stroke:#333333;stroke-width:0.5;" width="137.5957" x="462.35" y="322.73"/><ellipse cx="505.1693" cy="337.73" fill="#ADD1B2" rx="10" ry="10" style="stroke:#181818;stroke-width:1;"/><path d="M506.9975,341.98 Q506.5912,342.1831 506.1381,342.2925 Q505.685,342.4019 505.2006,342.4019 Q503.4193,342.4019 502.4818,341.2456 Q501.56,340.0738 501.56,337.8706 Q501.56,335.6519 502.4818,334.4956 Q503.4193,333.3238 505.2006,333.3238 Q505.685,333.3238 506.1381,333.4331 Q506.6068,333.5269 506.9975,333.7456 L506.9975,335.6675 Q506.56,335.2613 506.1381,335.0738 Q505.7162,334.8706 505.2787,334.8706 Q504.3256,334.8706 503.8412,335.6363 Q503.3568,336.3863 503.3568,337.8706 Q503.3568,339.3394 503.8412,340.0894 Q504.3256,340.8394 505.2787,340.8394 Q505.7162,340.8394 506.1381,340.6519 Q506.56,340.4644 506.9975,340.0581 L506.9975,341.98 Z " fill="#000000"/><text fill="#1A1A1A" font-family="sans-serif" font-size="12" lengthAdjust="spacing" textLength="43.957" x="524.1693" y="341.8843">Replica</text><line style="stroke:#333333;stroke-width:0.5;" x1="463.35" x2="598.9457" y1="352.73" y2="352.73"/><text fill="#000000" font-family="sans-serif" font-size="12" lengthAdjust="spacing" textLength="125.5957" x="468.35" y="367.8687">state : in-sync | stale</text></g><!--class DisclosurePath--><g class="entity" data-qualified-name="DisclosurePath" data-source-line="29" id="ent0010"><rect fill="#F1F1F1" height="65.9375" rx="4" ry="4" style="stroke:#333333;stroke-width:0.5;" width="265.2012" x="651.55" y="315.75"/><ellipse cx="735.5637" cy="330.75" fill="#ADD1B2" rx="10" ry="10" style="stroke:#181818;stroke-width:1;"/><path d="M737.3918,335 Q736.9855,335.2031 736.5324,335.3125 Q736.0793,335.4219 735.5949,335.4219 Q733.8137,335.4219 732.8762,334.2656 Q731.9543,333.0938 731.9543,330.8906 Q731.9543,328.6719 732.8762,327.5156 Q733.8137,326.3438 735.5949,326.3438 Q736.0793,326.3438 736.5324,326.4531 Q737.0012,326.5469 737.3918,326.7656 L737.3918,328.6875 Q736.9543,328.2813 736.5324,328.0938 Q736.1105,327.8906 735.673,327.8906 Q734.7199,327.8906 734.2355,328.6563 Q733.7512,329.4063 733.7512,330.8906 Q733.7512,332.3594 734.2355,333.1094 Q734.7199,333.8594 735.673,333.8594 Q736.1105,333.8594 736.5324,333.6719 Q736.9543,333.4844 737.3918,333.0781 L737.3918,335 Z " fill="#000000"/><text fill="#1A1A1A" font-family="sans-serif" font-size="12" lengthAdjust="spacing" textLength="89.1738" x="754.5637" y="334.9043">DisclosurePath</text><line style="stroke:#333333;stroke-width:0.5;" x1="652.55" x2="915.7512" y1="345.75" y2="345.75"/><text fill="#000000" font-family="sans-serif" font-size="12" lengthAdjust="spacing" textLength="217.8223" x="657.55" y="360.8887">kind : managed-session | clipboard |</text><text fill="#000000" font-family="sans-serif" font-size="12" lengthAdjust="spacing" textLength="249.3867" x="661.3645" y="374.8574">env-inject | ext-fill | auto-type | ssh-agent</text></g><!--class Disclosure--><g class="entity" data-qualified-name="Disclosure" data-source-line="32" id="ent0011"><rect fill="#F1F1F1" height="65.9375" rx="4" ry="4" style="stroke:#333333;stroke-width:0.5;" width="92.2734" x="759.01" y="12.95"/><ellipse cx="773.01" cy="27.95" fill="#ADD1B2" rx="10" ry="10" style="stroke:#181818;stroke-width:1;"/><path d="M774.8381,32.2 Q774.4319,32.4031 773.9788,32.5125 Q773.5256,32.6219 773.0413,32.6219 Q771.26,32.6219 770.3225,31.4656 Q769.4006,30.2938 769.4006,28.0906 Q769.4006,25.8719 770.3225,24.7156 Q771.26,23.5438 773.0413,23.5438 Q773.5256,23.5438 773.9788,23.6531 Q774.4475,23.7469 774.8381,23.9656 L774.8381,25.8875 Q774.4006,25.4813 773.9788,25.2938 Q773.5569,25.0906 773.1194,25.0906 Q772.1663,25.0906 771.6819,25.8563 Q771.1975,26.6063 771.1975,28.0906 Q771.1975,29.5594 771.6819,30.3094 Q772.1663,31.0594 773.1194,31.0594 Q773.5569,31.0594 773.9788,30.8719 Q774.4006,30.6844 774.8381,30.2781 L774.8381,32.2 Z " fill="#000000"/><text fill="#1A1A1A" font-family="sans-serif" font-size="12" lengthAdjust="spacing" textLength="62.2734" x="786.01" y="32.1043">Disclosure</text><line style="stroke:#333333;stroke-width:0.5;" x1="760.01" x2="850.2834" y1="42.95" y2="42.95"/><text fill="#000000" font-family="sans-serif" font-size="12" lengthAdjust="spacing" textLength="65.4434" x="765.01" y="58.0887">attestation</text><text fill="#000000" font-family="sans-serif" font-size="12" lengthAdjust="spacing" textLength="12.7441" x="765.01" y="72.0574">ttl</text></g><!--class Target--><g class="entity" data-qualified-name="Target" data-source-line="36" id="ent0012"><rect fill="#F1F1F1" height="30" rx="4" ry="4" style="stroke:#333333;stroke-width:0.5;" width="69.3223" x="40.49" y="185.79"/><ellipse cx="54.49" cy="200.79" fill="#ADD1B2" rx="10" ry="10" style="stroke:#181818;stroke-width:1;"/><path d="M56.3181,205.04 Q55.9119,205.2431 55.4588,205.3525 Q55.0056,205.4619 54.5213,205.4619 Q52.74,205.4619 51.8025,204.3056 Q50.8806,203.1338 50.8806,200.9306 Q50.8806,198.7119 51.8025,197.5556 Q52.74,196.3838 54.5213,196.3838 Q55.0056,196.3838 55.4588,196.4931 Q55.9275,196.5869 56.3181,196.8056 L56.3181,198.7275 Q55.8806,198.3213 55.4588,198.1338 Q55.0369,197.9306 54.5994,197.9306 Q53.6463,197.9306 53.1619,198.6963 Q52.6775,199.4463 52.6775,200.9306 Q52.6775,202.3994 53.1619,203.1494 Q53.6463,203.8994 54.5994,203.8994 Q55.0369,203.8994 55.4588,203.7119 Q55.8806,203.5244 56.3181,203.1181 L56.3181,205.04 Z " fill="#000000"/><text fill="#1A1A1A" font-family="sans-serif" font-size="12" lengthAdjust="spacing" textLength="39.3223" x="67.49" y="204.9443">Target</text></g><!--class RotationEvent--><g class="entity" data-qualified-name="RotationEvent" data-source-line="37" id="ent0013"><rect fill="#F1F1F1" height="30" rx="4" ry="4" style="stroke:#333333;stroke-width:0.5;" width="115.1016" x="846.6" y="185.79"/><ellipse cx="860.6" cy="200.79" fill="#ADD1B2" rx="10" ry="10" style="stroke:#181818;stroke-width:1;"/><path d="M862.4281,205.04 Q862.0219,205.2431 861.5688,205.3525 Q861.1156,205.4619 860.6313,205.4619 Q858.85,205.4619 857.9125,204.3056 Q856.9906,203.1338 856.9906,200.9306 Q856.9906,198.7119 857.9125,197.5556 Q858.85,196.3838 860.6313,196.3838 Q861.1156,196.3838 861.5688,196.4931 Q862.0375,196.5869 862.4281,196.8056 L862.4281,198.7275 Q861.9906,198.3213 861.5688,198.1338 Q861.1469,197.9306 860.7094,197.9306 Q859.7563,197.9306 859.2719,198.6963 Q858.7875,199.4463 858.7875,200.9306 Q858.7875,202.3994 859.2719,203.1494 Q859.7563,203.8994 860.7094,203.8994 Q861.1469,203.8994 861.5688,203.7119 Q861.9906,203.5244 862.4281,203.1181 L862.4281,205.04 Z " fill="#000000"/><text fill="#1A1A1A" font-family="sans-serif" font-size="12" lengthAdjust="spacing" textLength="85.1016" x="873.6" y="204.9443">RotationEvent</text></g><g class="entity" data-qualified-name="GMN30" data-source-line="57" id="ent0031"><path d="M258.96,551.68 L258.96,595.5863 A4,4 0 0 0 262.96,599.5863 L517.3428,599.5863 A4,4 0 0 0 521.3428,595.5863 L521.3428,557.68 L511.3428,547.68 L394.15,547.68 L390.15,487 L386.15,547.68 L262.96,547.68 A4,4 0 0 0 258.96,551.68" fill="#FEFFDD" style="stroke:#181818;stroke-width:0.5;"/><path d="M511.3428,547.68 L511.3428,555.68 A2,2 0 0 0 513.3428,557.68 L521.3428,557.68 L511.3428,547.68" fill="#FEFFDD" style="stroke:#181818;stroke-width:0.5;"/><text fill="#000000" font-family="sans-serif" font-size="12" lengthAdjust="spacing" textLength="158.0391" x="264.96" y="563.8187">displacement source only:</text><text fill="#000000" font-family="sans-serif" font-size="12" lengthAdjust="spacing" textLength="180.6563" x="264.96" y="577.7874">imported once, then disabled;</text><text fill="#000000" font-family="sans-serif" font-size="12" lengthAdjust="spacing" textLength="241.3828" x="264.96" y="591.7562">never a rest or replica store (ADR-0015)</text></g><g class="entity" data-qualified-name="GMN33" data-source-line="62" id="ent0034"><path d="M486.42,10 L486.42,41.92 L364.42,45.92 L486.42,49.92 L486.42,81.8438 A4,4 0 0 0 490.42,85.8438 L719.8712,85.8438 A4,4 0 0 0 723.8712,81.8438 L723.8712,16 L713.8712,6 L490.42,6 A4,4 0 0 0 486.42,10" fill="#FEFFDD" style="stroke:#181818;stroke-width:0.5;"/><path d="M713.8712,6 L713.8712,14 A2,2 0 0 0 715.8712,16 L723.8712,16 L713.8712,6" fill="#FEFFDD" style="stroke:#181818;stroke-width:0.5;"/><text fill="#000000" font-family="sans-serif" font-size="12" lengthAdjust="spacing" textLength="170.2148" x="492.42" y="22.1387">issued-by = authority chain:</text><text fill="#000000" font-family="sans-serif" font-size="12" lengthAdjust="spacing" textLength="166.6816" x="492.42" y="36.1074">self-provisioned sets root in</text><text fill="#000000" font-family="sans-serif" font-size="12" lengthAdjust="spacing" textLength="180.6445" x="492.42" y="50.0762">root secrets (recovery codes);</text><text fill="#000000" font-family="sans-serif" font-size="12" lengthAdjust="spacing" textLength="209.8125" x="492.42" y="64.0449">delegated sets point to the parent.</text><text fill="#000000" font-family="sans-serif" font-size="12" lengthAdjust="spacing" textLength="216.4512" x="492.42" y="78.0137">T3 is computable from these edges.</text></g><!--reverse link CredentialSet to SecretPart--><g class="link" data-entity-1="ent0001" data-entity-2="ent0002" data-link-type="composition" data-source-line="39" id="lnk14"><path codeLine="39" d="M319.3873,90.9673 C326.0073,116.9073 332.27,141.49 338.89,167.42" fill="none" id="CredentialSet-backto-SecretPart" style="stroke:#333333;stroke-width:1.2;"/><polygon fill="#333333" points="316.42,79.34,314.0279,86.1428,319.3873,90.9673,321.7795,84.1646,316.42,79.34" style="stroke:#333333;stroke-width:1.2;stroke-linejoin:miter;stroke-miterlimit:10;"/><text fill="#333333" font-family="sans-serif" font-size="12" lengthAdjust="spacing" textLength="63.7207" x="329.82" y="127.9787">consists of</text><text fill="#333333" font-family="sans-serif" font-size="12" lengthAdjust="spacing" textLength="7.6348" x="310.3587" y="97.9285">1</text><text fill="#333333" font-family="sans-serif" font-size="12" lengthAdjust="spacing" textLength="21.2637" x="313.8163" y="156.9433">1..*</text></g><!--link CredentialSet to Tier--><g class="link" data-entity-1="ent0001" data-entity-2="ent0003" data-link-type="dependency" data-source-line="40" id="lnk15"><path codeLine="40" d="M364.3,71.61 C416.59,94.63 496.69,129.96 566.15,160.84 C571.89,163.39 573.2844,164.0115 579.2644,166.6815" fill="none" id="CredentialSet-to-Tier" style="stroke:#333333;stroke-width:1.2;"/><polygon fill="#333333" points="583.83,168.72,577.2427,161.3983,579.2644,166.6815,573.9812,168.7032,583.83,168.72" style="stroke:#333333;stroke-width:1.2;stroke-linejoin:miter;stroke-miterlimit:10;"/><text fill="#333333" font-family="sans-serif" font-size="12" lengthAdjust="spacing" textLength="73.1016" x="496.33" y="127.9787">classified as</text></g><!--link CredentialSet to Target--><g class="link" data-entity-1="ent0001" data-entity-2="ent0012" data-link-type="dependency" data-source-line="41" id="lnk16"><path codeLine="41" d="M254.75,79.36 C218.6,101.65 169.99,132.27 128.15,160.84 C116.64,168.7 108.0748,174.9164 98.0548,182.4064" fill="none" id="CredentialSet-to-Target" style="stroke:#333333;stroke-width:1.2;"/><polygon fill="#333333" points="94.05,185.4,103.6535,183.2154,98.0548,182.4064,98.8637,176.8077,94.05,185.4" style="stroke:#333333;stroke-width:1.2;stroke-linejoin:miter;stroke-miterlimit:10;"/><text fill="#333333" font-family="sans-serif" font-size="12" lengthAdjust="spacing" textLength="98.4492" x="192.72" y="127.9787">authenticates to</text></g><!--link CredentialSet to CredentialSet--><g class="link" data-entity-1="ent0001" data-entity-2="ent0001" data-link-type="dependency" data-source-line="42" id="lnk17"><path codeLine="42" d="M364.5,31.4 C383.63,31.33 399.01,36.16 399.01,45.92 C399.01,55.67 388.63,60.5309 369.5,60.4509" fill="none" id="CredentialSet-to-CredentialSet" style="stroke:#333333;stroke-width:1.2;"/><polygon fill="#333333" points="364.5,60.43,373.4832,64.4676,369.5,60.4509,373.5166,56.4677,364.5,60.43" style="stroke:#333333;stroke-width:1.2;stroke-linejoin:miter;stroke-miterlimit:10;"/><text fill="#333333" font-family="sans-serif" font-size="12" lengthAdjust="spacing" textLength="57.4922" x="405.01" y="50.5587">issued-by</text></g><!--link SecretPart to Store--><g class="link" data-entity-1="ent0002" data-entity-2="ent0004" data-link-type="dependency" data-source-line="43" id="lnk18"><path codeLine="43" d="M347.15,234.18 C347.15,265.24 347.15,305.7 347.15,328.53" fill="none" id="SecretPart-to-Store" style="stroke:#333333;stroke-width:1.2;"/><polygon fill="#333333" points="347.15,333.53,351.15,324.53,347.15,328.53,343.15,324.53,347.15,333.53" style="stroke:#333333;stroke-width:1.2;stroke-linejoin:miter;stroke-miterlimit:10;"/><text fill="#333333" font-family="sans-serif" font-size="12" lengthAdjust="spacing" textLength="44.2793" x="348.15" y="282.8887">rests in</text></g><!--reverse link Store to AuthoritativeStore--><g class="link" data-entity-1="ent0004" data-entity-2="ent0005" data-link-type="extension" data-source-line="44" id="lnk19"><path codeLine="44" d="M299.4838,371.0706 C247.8438,394.2106 161.63,432.83 109.36,456.25" fill="none" id="Store-backto-AuthoritativeStore" style="stroke:#333333;stroke-width:1.2;"/><polygon fill="none" points="315.91,363.71,297.0302,365.5952,301.9373,376.546,315.91,363.71" style="stroke:#333333;stroke-width:1.2;stroke-linejoin:miter;stroke-miterlimit:10;"/></g><!--reverse link Store to EnvelopeStore--><g class="link" data-entity-1="ent0004" data-entity-2="ent0006" data-link-type="extension" data-source-line="45" id="lnk20"><path codeLine="45" d="M322.707,377.6077 C302.307,400.8877 274.1,433.08 253.71,456.35" fill="none" id="Store-backto-EnvelopeStore" style="stroke:#333333;stroke-width:1.2;"/><polygon fill="none" points="334.57,364.07,318.1945,373.6534,327.2196,381.5621,334.57,364.07" style="stroke:#333333;stroke-width:1.2;stroke-linejoin:miter;stroke-miterlimit:10;"/></g><!--reverse link Store to OSKeychain--><g class="link" data-entity-1="ent0004" data-entity-2="ent0007" data-link-type="extension" data-source-line="46" id="lnk21"><path codeLine="46" d="M384.0206,373.9583 C419.4306,397.2383 473.95,433.08 509.35,456.35" fill="none" id="Store-backto-OSKeychain" style="stroke:#333333;stroke-width:1.2;"/><polygon fill="none" points="368.98,364.07,380.7245,378.9719,387.3168,368.9448,368.98,364.07" style="stroke:#333333;stroke-width:1.2;stroke-linejoin:miter;stroke-miterlimit:10;"/></g><!--reverse link Store to BrowserStore--><g class="link" data-entity-1="ent0004" data-entity-2="ent0008" data-link-type="extension" data-source-line="47" id="lnk22"><path codeLine="47" d="M358.2819,381.0293 C366.5619,404.3093 376.78,433.08 385.05,456.35" fill="none" id="Store-backto-BrowserStore" style="stroke:#333333;stroke-width:1.2;"/><polygon fill="none" points="352.25,364.07,352.6288,383.0399,363.935,379.0186,352.25,364.07" style="stroke:#333333;stroke-width:1.2;stroke-linejoin:miter;stroke-miterlimit:10;"/></g><!--link SecretPart to Replica--><g class="link" data-entity-1="ent0002" data-entity-2="ent0009" data-link-type="dependency" data-source-line="48" id="lnk23"><path codeLine="48" d="M387.98,234.18 C421.55,260.79 464.5126,294.873 495.3526,319.333" fill="none" id="SecretPart-to-Replica" style="stroke:#333333;stroke-width:1.2;"/><polygon fill="#333333" points="499.27,322.44,494.7042,313.7134,495.3526,319.333,489.733,319.9813,499.27,322.44" style="stroke:#333333;stroke-width:1.2;stroke-linejoin:miter;stroke-miterlimit:10;"/><text fill="#333333" font-family="sans-serif" font-size="12" lengthAdjust="spacing" textLength="77.6777" x="451.16" y="282.8887">replicated as</text><text fill="#333333" font-family="sans-serif" font-size="12" lengthAdjust="spacing" textLength="7.6348" x="388.1576" y="253.0153">1</text><text fill="#333333" font-family="sans-serif" font-size="12" lengthAdjust="spacing" textLength="21.2637" x="466.9164" y="311.9007">0..*</text></g><!--link Replica to OSKeychain--><g class="link" data-entity-1="ent0009" data-entity-2="ent0007" data-link-type="dependency" data-source-line="49" id="lnk24"><path codeLine="49" d="M531.15,375.07 C531.15,399.74 531.15,431.33 531.15,451.33" fill="none" id="Replica-to-OSKeychain" style="stroke:#333333;stroke-width:1.2;"/><polygon fill="#333333" points="531.15,456.33,535.15,447.33,531.15,451.33,527.15,447.33,531.15,456.33" style="stroke:#333333;stroke-width:1.2;stroke-linejoin:miter;stroke-miterlimit:10;"/><text fill="#333333" font-family="sans-serif" font-size="12" lengthAdjust="spacing" textLength="42.1582" x="532.15" y="423.8187">lives in</text></g><!--link Disclosure to SecretPart--><g class="link" data-entity-1="ent0011" data-entity-2="ent0002" data-link-type="dependency" data-source-line="50" id="lnk25"><path codeLine="50" d="M758.73,77.08 C752.93,80.27 746.98,83.28 741.15,85.84 C661.78,120.71 573.6361,146.9591 497.9261,166.1891" fill="none" id="Disclosure-to-SecretPart" style="stroke:#333333;stroke-width:1.2;"/><polygon fill="#333333" points="493.08,167.42,502.7877,169.0813,497.9261,166.1891,500.8183,161.3275,493.08,167.42" style="stroke:#333333;stroke-width:1.2;stroke-linejoin:miter;stroke-miterlimit:10;"/><text fill="#333333" font-family="sans-serif" font-size="12" lengthAdjust="spacing" textLength="52.207" x="658.59" y="127.9787">decrypts</text></g><!--link Disclosure to DisclosurePath--><g class="link" data-entity-1="ent0011" data-entity-2="ent0010" data-link-type="dependency" data-source-line="51" id="lnk26"><path codeLine="51" d="M802.9,79.11 C798.87,136.85 790.798,252.4121 786.758,310.3121" fill="none" id="Disclosure-to-DisclosurePath" style="stroke:#333333;stroke-width:1.2;"/><polygon fill="#333333" points="786.41,315.3,791.0268,306.6003,786.758,310.3121,783.0462,306.0434,786.41,315.3" style="stroke:#333333;stroke-width:1.2;stroke-linejoin:miter;stroke-miterlimit:10;"/><text fill="#333333" font-family="sans-serif" font-size="12" lengthAdjust="spacing" textLength="17.7891" x="798.08" y="205.4287">via</text></g><!--link Tier to DisclosurePath--><g class="link" data-entity-1="ent0003" data-entity-2="ent0010" data-link-type="dependency" data-source-line="52" id="lnk27"><path codeLine="52" d="M682.26,241.19 C693.37,255.58 706.43,271.75 719.15,285.75 C728.27,295.78 735.0768,302.7143 744.8768,312.0343" fill="none" id="Tier-to-DisclosurePath" style="stroke:#333333;stroke-width:1.2;stroke-dasharray:7,7;"/><polygon fill="#333333" points="748.5,315.48,744.7349,306.3792,744.8768,312.0343,739.2218,312.1763,748.5,315.48" style="stroke:#333333;stroke-width:1.2;stroke-linejoin:miter;stroke-miterlimit:10;"/><text fill="#333333" font-family="sans-serif" font-size="12" lengthAdjust="spacing" textLength="45.9141" x="720.15" y="282.8887">permits</text></g><!--link Tier to Replica--><g class="link" data-entity-1="ent0003" data-entity-2="ent0009" data-link-type="dependency" data-source-line="53" id="lnk28"><path codeLine="53" d="M603,240.93 C592.81,250.11 582.63,260.28 574.15,270.75 C561.33,286.56 552.4217,302.2309 544.7117,317.9509" fill="none" id="Tier-to-Replica" style="stroke:#333333;stroke-width:1.2;stroke-dasharray:7,7;"/><polygon fill="#333333" points="542.51,322.44,550.0644,316.1209,544.7117,317.9509,542.8818,312.5982,542.51,322.44" style="stroke:#333333;stroke-width:1.2;stroke-linejoin:miter;stroke-miterlimit:10;"/><text fill="#333333" font-family="sans-serif" font-size="12" lengthAdjust="spacing" textLength="100.7109" x="575.15" y="282.8887">forbids above T1</text></g><!--link Disclosure to RotationEvent--><g class="link" data-entity-1="ent0011" data-entity-2="ent0013" data-link-type="dependency" data-source-line="54" id="lnk29"><path codeLine="54" d="M826.14,79.34 C847.37,112.12 876.4922,157.0832 892.1122,181.2032" fill="none" id="Disclosure-to-RotationEvent" style="stroke:#333333;stroke-width:1.2;"/><polygon fill="#333333" points="894.83,185.4,893.2953,175.6714,892.1122,181.2032,886.5804,180.02,894.83,185.4" style="stroke:#333333;stroke-width:1.2;stroke-linejoin:miter;stroke-miterlimit:10;"/><text fill="#333333" font-family="sans-serif" font-size="12" lengthAdjust="spacing" textLength="33.3633" x="858.62" y="127.9787">emits</text></g><?plantuml-src RLLDRzms4BthLqnzYHrOWesqEMm_WDHsBmMQ85u4FVH2IRChrXGfSBYx4R81-YFw2_jByeRQjRMkJvA6ZpDltZnIh-ZJ6_hldt_fDlJ6UcgS4Q4-jEpel6ONTfGwffllQUL2Y1SLBJdsGWD7kdd_n_BkpsNLjrNnYfQ0fIuoqn2SRSOoZGEtX7IXiIRPu6bbUkiiIouOMPAKrb_YRS06axWjZLmYLMkbSK7mlRKcWqraOjDqr0GlAO8fKjSZBIrudFiGUrJOehInaNOsTSeQcPAkJtm8a6W_qwUtX3wtbdS2vXTLyPtrZTkqJ996nvNTzAxeBBwv7nAsSLzpbAAOfBc9tB9FrhXxJlIb839D4pO-uKsh5LyFm7jk8gSF9awe1-jRMe2Wo2x4blQKGXfAOTRto4tOSXpB1ieB0WyyvbxsP0PRfl307abKiz_Gh2PoEguziTzYIWC_risIV9c3f_vpP19QP_4OD0v31WcewiKcC4oT89kfLUWc7InndqBaGubtczI5Q5FMVBvmTo0pZxs__vt7fWFRG-3N67R2SOxvE17Bj0Lf6GrQNyhe6xI8Y7lgxtOonoRo1p2TQziRRzOmZR28jhW7TJlKmQZSVtcL2dxxcz4JTFkSofLrJXNUf93TghMaAv44u_n_lMdQAR5IH06TU79FmfkuvdJiA4oOkwtcAavTStPzHg_B4i-gUdqsTyeY6zpYP51OFTjLbhzCmrrC8x4hcy_NIx1C1K2qrkcIdYw1urx0daQWkyW68jPZCUEbm3mm0FB1nNYAAV3J7fsyu8ZPwgajPWipRyoY9mQPaL3PbCZPLPRjQ9h5x09HEOvnXJuL0Co1MoO-6sbkRAv_YuznIF8SzCns2zmWfiZZgAeNLd4_zXPP7X5FR5SXrhOLCZMEF2sldrSwiGxmd1CLFk1Or26bqCCRfoAHNfcu4HhkTO-4JMoOWdVZ0cks7q9KSO9l-59lHgzuKpjkVyIwPrmzPF9WASIZd3XtEfBpTxSVowkhwnyk2iOnKneJbsZNNL8g9mxIUaS7qS_PW6gCaV8Kb8wmMvL335khfnIqXE6d64BIsT3q9dacGkV7cv7opNYXVF5ludMUTjuv18kUKyW_gW5_2fyge9PlG0Ix-c6Jj5LQHIW7ZE1cRzSirMC_tm00?></g></svg>