<svg xmlns="http://www.w3.org/2000/svg" xmlns:xlink="http://www.w3.org/1999/xlink" contentStyleType="text/css" data-diagram-type="STATE" height="613px" preserveAspectRatio="none" style="width:816px;height:613px;background:#FFFFFF;" version="1.1" viewBox="0 0 816 613" width="816px" zoomAndPan="magnify"><?plantuml 1.2026.6?><defs/><g><g class="start_entity" data-qualified-name=".start." data-source-line="6" id="ent0001"><ellipse cx="92.62" cy="296" fill="#222222" rx="10" ry="10" style="stroke:#222222;stroke-width:1;"/></g><g class="entity" data-qualified-name="Active" data-source-line="6" id="ent0002"><rect fill="#F1F1F1" height="50" rx="4" ry="4" style="stroke:#333333;stroke-width:0.5;" width="57.3301" x="126.95" y="410"/><line style="stroke:#333333;stroke-width:0.5;" x1="126.95" x2="184.2801" y1="433.9688" y2="433.9688"/><text fill="#1A1A1A" font-family="sans-serif" font-size="12" lengthAdjust="spacing" textLength="37.3301" x="136.95" y="426.1387">Active</text></g><g class="entity" data-qualified-name="PendingStaged" data-source-line="7" id="ent0004"><rect fill="#F1F1F1" height="50" rx="4" ry="4" style="stroke:#333333;stroke-width:0.5;" width="110.6914" x="100.27" y="7"/><line style="stroke:#333333;stroke-width:0.5;" x1="100.27" x2="210.9614" y1="30.9688" y2="30.9688"/><text fill="#1A1A1A" font-family="sans-serif" font-size="12" lengthAdjust="spacing" textLength="90.6914" x="110.27" y="23.1387">PendingStaged</text></g><g class="entity" data-qualified-name="Applied" data-source-line="8" id="ent0006"><rect fill="#F1F1F1" height="50" rx="4" ry="4" style="stroke:#333333;stroke-width:0.5;" width="65.1113" x="375.06" y="132"/><line style="stroke:#333333;stroke-width:0.5;" x1="375.06" x2="440.1713" y1="155.9688" y2="155.9688"/><text fill="#1A1A1A" font-family="sans-serif" font-size="12" lengthAdjust="spacing" textLength="45.1113" x="385.06" y="148.1387">Applied</text></g><g class="entity" data-qualified-name="Verified" data-source-line="10" id="ent0009"><rect fill="#F1F1F1" height="50" rx="4" ry="4" style="stroke:#333333;stroke-width:0.5;" width="66.418" x="362.41" y="271"/><line style="stroke:#333333;stroke-width:0.5;" x1="362.41" x2="428.828" y1="294.9688" y2="294.9688"/><text fill="#1A1A1A" font-family="sans-serif" font-size="12" lengthAdjust="spacing" textLength="46.418" x="372.41" y="287.1387">Verified</text></g><g class="entity" data-qualified-name="RollbackAttempt" data-source-line="11" id="ent0011"><rect fill="#F1F1F1" height="50" rx="4" ry="4" style="stroke:#333333;stroke-width:0.5;" width="119.8789" x="538.68" y="271"/><line style="stroke:#333333;stroke-width:0.5;" x1="538.68" x2="658.5589" y1="294.9688" y2="294.9688"/><text fill="#1A1A1A" font-family="sans-serif" font-size="12" lengthAdjust="spacing" textLength="99.8789" x="548.68" y="287.1387">RollbackAttempt</text></g><g class="entity" data-qualified-name="Conflicted" data-source-line="13" id="ent0014"><rect fill="#F1F1F1" height="50" rx="4" ry="4" style="stroke:#333333;stroke-width:0.5;" width="80.5215" x="558.36" y="410"/><line style="stroke:#333333;stroke-width:0.5;" x1="558.36" x2="638.8815" y1="433.9688" y2="433.9688"/><text fill="#1A1A1A" font-family="sans-serif" font-size="12" lengthAdjust="spacing" textLength="60.5215" x="568.36" y="426.1387">Conflicted</text></g><g class="entity" data-qualified-name="Retired" data-source-line="15" id="ent0017"><rect fill="#F1F1F1" height="50" rx="4" ry="4" style="stroke:#333333;stroke-width:0.5;" width="63.6934" x="123.77" y="549"/><line style="stroke:#333333;stroke-width:0.5;" x1="123.77" x2="187.4634" y1="572.9688" y2="572.9688"/><text fill="#1A1A1A" font-family="sans-serif" font-size="12" lengthAdjust="spacing" textLength="43.6934" x="133.77" y="565.1387">Retired</text></g><g class="entity" data-qualified-name="GMN19" data-source-line="18" id="ent0020"><path d="M246.3,17.03 L246.3,28 L211.31,32 L246.3,36 L246.3,46.9675 A4,4 0 0 0 250.3,50.9675 L412.9367,50.9675 A4,4 0 0 0 416.9367,46.9675 L416.9367,23.03 L406.9367,13.03 L250.3,13.03 A4,4 0 0 0 246.3,17.03" fill="#FEFFDD" style="stroke:#181818;stroke-width:0.5;"/><path d="M406.9367,13.03 L406.9367,21.03 A2,2 0 0 0 408.9367,23.03 L416.9367,23.03 L406.9367,13.03" fill="#FEFFDD" style="stroke:#181818;stroke-width:0.5;"/><text fill="#000000" font-family="sans-serif" font-size="12" lengthAdjust="spacing" textLength="147.3398" x="252.3" y="29.1687">lockout-safe: vault holds</text><text fill="#000000" font-family="sans-serif" font-size="12" lengthAdjust="spacing" textLength="149.6367" x="252.3" y="43.1374">both values until verified</text></g><g class="entity" data-qualified-name="GMN22" data-source-line="22" id="ent0023"><path d="M674,420.03 L674,431 L639.34,435 L674,439 L674,449.9675 A4,4 0 0 0 678,453.9675 L797.248,453.9675 A4,4 0 0 0 801.248,449.9675 L801.248,426.03 L791.248,416.03 L678,416.03 A4,4 0 0 0 674,420.03" fill="#FEFFDD" style="stroke:#181818;stroke-width:0.5;"/><path d="M791.248,416.03 L791.248,424.03 A2,2 0 0 0 793.248,426.03 L801.248,426.03 L791.248,416.03" fill="#FEFFDD" style="stroke:#181818;stroke-width:0.5;"/><text fill="#000000" font-family="sans-serif" font-size="12" lengthAdjust="spacing" textLength="88.4707" x="680" y="432.1687">alarm event &#8212;</text><text fill="#000000" font-family="sans-serif" font-size="12" lengthAdjust="spacing" textLength="106.248" x="680" y="446.1374">the kraken wakes</text></g><!--link *start* to Active--><g class="link" data-entity-1="ent0001" data-entity-2="ent0002" data-link-type="dependency" data-source-line="6" id="lnk3"><path d="M96.42,305.76 C103.04,320.94 117.15,353.09 129.62,380 C134.13,389.72 137.0445,395.8581 141.5145,405.1081" fill="none" id="*start*-to-Active" style="stroke:#333333;stroke-width:1.2;"/><polygon fill="#333333" points="143.69,409.61,143.3756,399.7662,141.5145,405.1081,136.1726,403.247,143.69,409.61" style="stroke:#333333;stroke-width:1.2;stroke-linejoin:miter;stroke-miterlimit:10;"/></g><!--link Active to PendingStaged--><g class="link" data-entity-1="ent0002" data-entity-2="ent0004" data-link-type="dependency" data-source-line="7" id="lnk5"><path d="M155.62,409.59 C155.62,338 155.62,134.15 155.62,62.48" fill="none" id="Active-to-PendingStaged" style="stroke:#333333;stroke-width:1.2;"/><polygon fill="#333333" points="155.62,57.48,151.62,66.48,155.62,62.48,159.62,66.48,155.62,57.48" style="stroke:#333333;stroke-width:1.2;stroke-linejoin:miter;stroke-miterlimit:10;"/><text fill="#333333" font-family="sans-serif" font-size="12" lengthAdjust="spacing" textLength="90.252" x="216.5702" y="224.1387">batch planned;</text><text fill="#333333" font-family="sans-serif" font-size="12" lengthAdjust="spacing" textLength="210.1523" x="156.62" y="238.1074">new secret persisted (write-ahead)</text></g><!--link PendingStaged to Active--><g class="link" data-entity-1="ent0004" data-entity-2="ent0002" data-link-type="dependency" data-source-line="9" id="lnk8"><path d="M131.19,57.24 C100.75,89.35 50.35,149.27 30.62,212 C6,290.27 78.9399,368.3629 123.0499,407.2629" fill="none" id="PendingStaged-to-Active" style="stroke:#333333;stroke-width:1.2;"/><polygon fill="#333333" points="126.8,410.57,122.6956,401.6171,123.0499,407.2629,117.4042,407.6172,126.8,410.57" style="stroke:#333333;stroke-width:1.2;stroke-linejoin:miter;stroke-miterlimit:10;"/><text fill="#333333" font-family="sans-serif" font-size="12" lengthAdjust="spacing" textLength="115.5293" x="31.62" y="224.1387">abort before apply;</text><text fill="#333333" font-family="sans-serif" font-size="12" lengthAdjust="spacing" textLength="96.2988" x="41.2352" y="238.1074">discard pending</text></g><!--link PendingStaged to Applied--><g class="link" data-entity-1="ent0004" data-entity-2="ent0006" data-link-type="dependency" data-source-line="8" id="lnk7"><path d="M205.71,57.45 C255.95,81.97 327.3565,116.8271 370.3665,137.8171" fill="none" id="PendingStaged-to-Applied" style="stroke:#333333;stroke-width:1.2;"/><polygon fill="#333333" points="374.86,140.01,368.5261,132.468,370.3665,137.8171,365.0175,139.6575,374.86,140.01" style="stroke:#333333;stroke-width:1.2;stroke-linejoin:miter;stroke-miterlimit:10;"/><text fill="#333333" font-family="sans-serif" font-size="12" lengthAdjust="spacing" textLength="141.5391" x="297.71" y="99.1387">connector set on target</text></g><!--link Applied to Verified--><g class="link" data-entity-1="ent0006" data-entity-2="ent0009" data-link-type="dependency" data-source-line="10" id="lnk10"><path d="M405.47,182.49 C403.29,207.43 400.3548,240.8789 398.1848,265.7389" fill="none" id="Applied-to-Verified" style="stroke:#333333;stroke-width:1.2;"/><polygon fill="#333333" points="397.75,270.72,402.5175,262.1019,398.1848,265.7389,394.5478,261.4063,397.75,270.72" style="stroke:#333333;stroke-width:1.2;stroke-linejoin:miter;stroke-miterlimit:10;"/><text fill="#333333" font-family="sans-serif" font-size="12" lengthAdjust="spacing" textLength="182.9121" x="403.69" y="231.1387">authenticated with new secret</text></g><!--link Applied to RollbackAttempt--><g class="link" data-entity-1="ent0006" data-entity-2="ent0011" data-link-type="dependency" data-source-line="11" id="lnk12"><path d="M440.41,157.12 C482.89,157.94 555.83,166.45 592.62,212 C605.69,228.18 606.5819,247.4588 604.3119,265.5688" fill="none" id="Applied-to-RollbackAttempt" style="stroke:#333333;stroke-width:1.2;"/><polygon fill="#333333" points="603.69,270.53,608.7783,262.0974,604.3119,265.5688,600.8404,261.1024,603.69,270.53" style="stroke:#333333;stroke-width:1.2;stroke-linejoin:miter;stroke-miterlimit:10;"/><text fill="#333333" font-family="sans-serif" font-size="12" lengthAdjust="spacing" textLength="71.1387" x="604.89" y="231.1387">verify failed</text></g><!--link RollbackAttempt to Active--><g class="link" data-entity-1="ent0011" data-entity-2="ent0002" data-link-type="dependency" data-source-line="12" id="lnk13"><path d="M545.11,321.45 C504.24,339.43 446.19,363.51 393.62,380 C319.64,403.2 234.7305,419.9421 189.5105,428.1021" fill="none" id="RollbackAttempt-to-Active" style="stroke:#333333;stroke-width:1.2;"/><polygon fill="#333333" points="184.59,428.99,194.1573,431.3282,189.5105,428.1021,192.7366,423.4553,184.59,428.99" style="stroke:#333333;stroke-width:1.2;stroke-linejoin:miter;stroke-miterlimit:10;"/><text fill="#333333" font-family="sans-serif" font-size="12" lengthAdjust="spacing" textLength="113.7246" x="474.68" y="363.1387">old secret restored</text><text fill="#333333" font-family="sans-serif" font-size="12" lengthAdjust="spacing" textLength="69.6035" x="496.7405" y="377.1074">or still valid</text></g><!--link RollbackAttempt to Conflicted--><g class="link" data-entity-1="ent0011" data-entity-2="ent0014" data-link-type="dependency" data-source-line="13" id="lnk15"><path d="M598.62,321.49 C598.62,346.43 598.62,379.86 598.62,404.72" fill="none" id="RollbackAttempt-to-Conflicted" style="stroke:#333333;stroke-width:1.2;"/><polygon fill="#333333" points="598.62,409.72,602.62,400.72,598.62,404.72,594.62,400.72,598.62,409.72" style="stroke:#333333;stroke-width:1.2;stroke-linejoin:miter;stroke-miterlimit:10;"/><text fill="#333333" font-family="sans-serif" font-size="12" lengthAdjust="spacing" textLength="125.8359" x="604.4657" y="363.1387">manual intervention;</text><text fill="#333333" font-family="sans-serif" font-size="12" lengthAdjust="spacing" textLength="135.5273" x="599.62" y="377.1074">both secrets uncertain</text></g><!--link Verified to Active--><g class="link" data-entity-1="ent0009" data-entity-2="ent0002" data-link-type="dependency" data-source-line="14" id="lnk16"><path d="M362.07,310.57 C338.04,320.71 305.19,335.46 277.62,351 C244.37,369.74 212.528,391.8413 188.358,409.4913" fill="none" id="Verified-to-Active" style="stroke:#333333;stroke-width:1.2;"/><polygon fill="#333333" points="184.32,412.44,193.9473,410.3627,188.358,409.4913,189.2294,403.902,184.32,412.44" style="stroke:#333333;stroke-width:1.2;stroke-linejoin:miter;stroke-miterlimit:10;"/><text fill="#333333" font-family="sans-serif" font-size="12" lengthAdjust="spacing" textLength="110.2031" x="278.62" y="363.1387">new secret active;</text><text fill="#333333" font-family="sans-serif" font-size="12" lengthAdjust="spacing" textLength="72.4219" x="297.5106" y="377.1074">old retained</text></g><!--link Active to Retired--><g class="link" data-entity-1="ent0002" data-entity-2="ent0017" data-link-type="dependency" data-source-line="15" id="lnk18"><path d="M155.62,460.49 C155.62,485.43 155.62,518.86 155.62,543.72" fill="none" id="Active-to-Retired" style="stroke:#333333;stroke-width:1.2;"/><polygon fill="#333333" points="155.62,548.72,159.62,539.72,155.62,543.72,151.62,539.72,155.62,548.72" style="stroke:#333333;stroke-width:1.2;stroke-linejoin:miter;stroke-miterlimit:10;"/><text fill="#333333" font-family="sans-serif" font-size="12" lengthAdjust="spacing" textLength="111.8848" x="156.62" y="502.1387">old secret revoked</text><text fill="#333333" font-family="sans-serif" font-size="12" lengthAdjust="spacing" textLength="108.3398" x="158.3925" y="516.1074">after grace period</text></g><?plantuml-src RLDBRjim4Dtp5DDLug8ANA3emW426Eq12gV8fkbYH8qimXGfa2CRtlKGFM5FqaS9JgmW6mdYSDwyp-Y6dhxGlpz_wL5i4gKKbTN5GDwrOi_M2zsUabEfk1DkQC25QAF_HDllksgzNdzTtPaRsidWdMNAOrrTTVxyJ37uysf3BbJv72nL3vILKSE8braszhtJU-3CDLowt4UL6nvK4WrZxkXMZX8qKolIK8ZgMemj8A3nmGNhnqQ0SlPovyRU6_Fhus-g0BYrwevYvjTqyaD2uyB-KNaFh0tLhBQZmNC8qjm_utcYFBioICekAwvTcx4oIuXfp00Z9ZWRWM0r9e1eqQ6SzgBlzSoSDiHrJ4grj349CP3EeD6uR3d1-RdFN2QKpYT9C60QnwDsSAQuWU-JquvU1IoQTj7xckrXgohzeEWz5fWpjUoyDEPjVK4n-kPYIf8CTT8yXw9HdVTqPE_U1_WMGuiDqObhps5aZumHQuaJyK5e7S5vniuq1Yj9sGNped71uoeSdiu0KBZX04rGSHNqJjIbQV22_J4U2dbkotBj4rifERlO68F54afkto6uThaeXiX7UuYZLfbRWNayUgKEq1crIGHi6ALeW2cpkU1lW58sLjwWlpg3TlQSUffslFoLE46gT4Xya40dFFCBp7y0?></g></svg>