<svg xmlns="http://www.w3.org/2000/svg" xmlns:xlink="http://www.w3.org/1999/xlink" contentStyleType="text/css" data-diagram-type="SEQUENCE" height="667px" preserveAspectRatio="none" style="width:815px;height:667px;background:#FFFFFF;" version="1.1" viewBox="0 0 815 667" width="815px" zoomAndPan="magnify"><?plantuml 1.2026.6?><defs/><g><rect fill="none" height="105.8438" rx="4" ry="4" style="stroke:#000000;stroke-width:1.5;" width="647.0654" x="9" y="277.75"/><g class="participant-lifeline" data-entity-uid="part1" data-qualified-name="U" data-source-line="7" id="part1-lifeline"><g><title>SOHO admin</title><rect fill="#000000" fill-opacity="0.00000" height="508.4063" width="8" x="60.4727" y="78.9688"/><line style="stroke:#181818;stroke-width:0.5;stroke-dasharray:5,5;" x1="64" x2="64" y1="78.9688" y2="587.375"/></g></g><g class="participant-lifeline" data-entity-uid="part2" data-qualified-name="E" data-source-line="8" id="part2-lifeline"><g><title>Engine</title><rect fill="#000000" fill-opacity="0.00000" height="508.4063" width="8" x="282.3379" y="78.9688"/><line style="stroke:#181818;stroke-width:0.5;stroke-dasharray:5,5;" x1="286.2393" x2="286.2393" y1="78.9688" y2="587.375"/></g></g><g class="participant-lifeline" data-entity-uid="part3" data-qualified-name="Y" data-source-line="9" id="part3-lifeline"><g><title>YubiKey</title><rect fill="#000000" fill-opacity="0.00000" height="508.4063" width="8" x="494.2383" y="78.9688"/><line style="stroke:#181818;stroke-width:0.5;stroke-dasharray:5,5;" x1="498.1182" x2="498.1182" y1="78.9688" y2="587.375"/></g></g><g class="participant-lifeline" data-entity-uid="part4" data-qualified-name="P" data-source-line="10" id="part4-lifeline"><g><title>Rotation profile</title><rect fill="#000000" fill-opacity="0.00000" height="508.4063" width="8" x="588.7119" y="78.9688"/><line style="stroke:#181818;stroke-width:0.5;stroke-dasharray:5,5;" x1="592.3584" x2="592.3584" y1="78.9688" y2="587.375"/></g></g><g class="participant-lifeline" data-entity-uid="part5" data-qualified-name="T" data-source-line="11" id="part5-lifeline"><g><title>Proxmox web UI</title><rect fill="#000000" fill-opacity="0.00000" height="508.4063" width="8" x="744.8994" y="78.9688"/><line style="stroke:#181818;stroke-width:0.5;stroke-dasharray:5,5;" x1="748.1436" x2="748.1436" y1="78.9688" y2="587.375"/></g></g><g class="participant participant-head" data-entity-uid="part1" data-qualified-name="U" data-source-line="7" id="part1-head"><text fill="#1A1A1A" font-family="sans-serif" font-size="12" lengthAdjust="spacing" textLength="76.9453" x="23" y="76.1387">SOHO admin</text><ellipse cx="64.4727" cy="13.5" fill="#E2E2F0" rx="8" ry="8" style="stroke:#333333;stroke-width:0.5;"/><path d="M64.4727,21.5 L64.4727,48.5 M51.4727,29.5 L77.4727,29.5 M64.4727,48.5 L51.4727,63.5 M64.4727,48.5 L77.4727,63.5" fill="none" style="stroke:#333333;stroke-width:0.5;"/></g><g class="participant participant-tail" data-entity-uid="part1" data-qualified-name="U" data-source-line="7" id="part1-tail"><text fill="#1A1A1A" font-family="sans-serif" font-size="12" lengthAdjust="spacing" textLength="76.9453" x="23" y="597.5137">SOHO admin</text><ellipse cx="64.4727" cy="608.8438" fill="#E2E2F0" rx="8" ry="8" style="stroke:#333333;stroke-width:0.5;"/><path d="M64.4727,616.8438 L64.4727,643.8438 M51.4727,624.8438 L77.4727,624.8438 M64.4727,643.8438 L51.4727,658.8438 M64.4727,643.8438 L77.4727,658.8438" fill="none" style="stroke:#333333;stroke-width:0.5;"/></g><g class="participant participant-head" data-entity-uid="part2" data-qualified-name="E" data-source-line="8" id="part2-head"><rect fill="#E2E2F0" height="41.9375" rx="4" ry="4" style="stroke:#181818;stroke-width:0.5;" width="130.1973" x="221.2393" y="36.0313"/><text fill="#000000" font-family="sans-serif" font-size="12" lengthAdjust="spacing" textLength="41.127" x="265.7744" y="54.1699">Engine</text><text fill="#000000" font-family="sans-serif" font-size="12" lengthAdjust="spacing" textLength="116.1973" x="228.2393" y="68.1387">(ceremony service)</text></g><g class="participant participant-tail" data-entity-uid="part2" data-qualified-name="E" data-source-line="8" id="part2-tail"><rect fill="#E2E2F0" height="41.9375" rx="4" ry="4" style="stroke:#181818;stroke-width:0.5;" width="130.1973" x="221.2393" y="586.375"/><text fill="#000000" font-family="sans-serif" font-size="12" lengthAdjust="spacing" textLength="41.127" x="265.7744" y="604.5137">Engine</text><text fill="#000000" font-family="sans-serif" font-size="12" lengthAdjust="spacing" textLength="116.1973" x="228.2393" y="618.4824">(ceremony service)</text></g><g class="participant participant-head" data-entity-uid="part3" data-qualified-name="Y" data-source-line="9" id="part3-head"><rect fill="#E2E2F0" height="27.9688" rx="4" ry="4" style="stroke:#181818;stroke-width:0.5;" width="62.2402" x="467.1182" y="50"/><text fill="#000000" font-family="sans-serif" font-size="12" lengthAdjust="spacing" textLength="48.2402" x="474.1182" y="68.1387">YubiKey</text></g><g class="participant participant-tail" data-entity-uid="part3" data-qualified-name="Y" data-source-line="9" id="part3-tail"><rect fill="#E2E2F0" height="27.9688" rx="4" ry="4" style="stroke:#181818;stroke-width:0.5;" width="62.2402" x="467.1182" y="586.375"/><text fill="#000000" font-family="sans-serif" font-size="12" lengthAdjust="spacing" textLength="48.2402" x="474.1182" y="604.5137">YubiKey</text></g><g class="participant participant-head" data-entity-uid="part4" data-qualified-name="P" data-source-line="10" id="part4-head"><rect fill="#E2E2F0" height="41.9375" rx="4" ry="4" style="stroke:#181818;stroke-width:0.5;" width="106.707" x="539.3584" y="36.0313"/><text fill="#000000" font-family="sans-serif" font-size="12" lengthAdjust="spacing" textLength="92.707" x="546.3584" y="54.1699">Rotation profile</text><text fill="#000000" font-family="sans-serif" font-size="12" lengthAdjust="spacing" textLength="57.6387" x="563.8926" y="68.1387">(browser)</text></g><g class="participant participant-tail" data-entity-uid="part4" data-qualified-name="P" data-source-line="10" id="part4-tail"><rect fill="#E2E2F0" height="41.9375" rx="4" ry="4" style="stroke:#181818;stroke-width:0.5;" width="106.707" x="539.3584" y="586.375"/><text fill="#000000" font-family="sans-serif" font-size="12" lengthAdjust="spacing" textLength="92.707" x="546.3584" y="604.5137">Rotation profile</text><text fill="#000000" font-family="sans-serif" font-size="12" lengthAdjust="spacing" textLength="57.6387" x="563.8926" y="618.4824">(browser)</text></g><g class="participant participant-head" data-entity-uid="part5" data-qualified-name="T" data-source-line="11" id="part5-head"><rect fill="#E2E2F0" height="27.9688" rx="4" ry="4" style="stroke:#181818;stroke-width:0.5;" width="111.5117" x="693.1436" y="50"/><text fill="#000000" font-family="sans-serif" font-size="12" lengthAdjust="spacing" textLength="97.5117" x="700.1436" y="68.1387">Proxmox web UI</text></g><g class="participant participant-tail" data-entity-uid="part5" data-qualified-name="T" data-source-line="11" id="part5-tail"><rect fill="#E2E2F0" height="27.9688" rx="4" ry="4" style="stroke:#181818;stroke-width:0.5;" width="111.5117" x="693.1436" y="586.375"/><text fill="#000000" font-family="sans-serif" font-size="12" lengthAdjust="spacing" textLength="97.5117" x="700.1436" y="604.5137">Proxmox web UI</text></g><g class="message" data-entity-1="part1" data-entity-2="part2" data-source-line="13" id="msg1"><polygon fill="#333333" points="274.3379,104.9375,284.3379,108.9375,274.3379,112.9375,278.3379,108.9375" style="stroke:#333333;stroke-width:1;stroke-linejoin:miter;stroke-miterlimit:10;"/><line style="stroke:#333333;stroke-width:1.2;" x1="64.4727" x2="280.3379" y1="108.9375" y2="108.9375"/><text fill="#333333" font-family="sans-serif" font-size="12" lengthAdjust="spacing" textLength="189.8613" x="71.4727" y="104.1074">open proxmox (launch request)</text></g><g class="message" data-entity-1="part2" data-entity-2="part1" data-source-line="14" id="msg2"><polygon fill="#333333" points="75.4727,132.9063,65.4727,136.9063,75.4727,140.9063,71.4727,136.9063" style="stroke:#333333;stroke-width:1;stroke-linejoin:miter;stroke-miterlimit:10;"/><line style="stroke:#333333;stroke-width:1.2;" x1="69.4727" x2="285.3379" y1="136.9063" y2="136.9063"/><text fill="#333333" font-family="sans-serif" font-size="12" lengthAdjust="spacing" textLength="104.8477" x="81.4727" y="132.0762">request presence</text></g><g class="message" data-entity-1="part1" data-entity-2="part3" data-source-line="15" id="msg3"><polygon fill="#333333" points="486.2383,160.875,496.2383,164.875,486.2383,168.875,490.2383,164.875" style="stroke:#333333;stroke-width:1;stroke-linejoin:miter;stroke-miterlimit:10;"/><line style="stroke:#333333;stroke-width:1.2;" x1="64.4727" x2="492.2383" y1="164.875" y2="164.875"/><text fill="#333333" font-family="sans-serif" font-size="12" lengthAdjust="spacing" textLength="33.8555" x="71.4727" y="160.0449">touch</text></g><g class="message" data-entity-1="part3" data-entity-2="part2" data-source-line="16" id="msg4"><polygon fill="#333333" points="297.3379,188.8438,287.3379,192.8438,297.3379,196.8438,293.3379,192.8438" style="stroke:#333333;stroke-width:1;stroke-linejoin:miter;stroke-miterlimit:10;"/><line style="stroke:#333333;stroke-width:1.2;stroke-dasharray:2,2;" x1="291.3379" x2="497.2383" y1="192.8438" y2="192.8438"/><text fill="#333333" font-family="sans-serif" font-size="12" lengthAdjust="spacing" textLength="172.623" x="303.3379" y="188.0137">decrypt envelope entry (PIV)</text></g><g class="message" data-entity-1="part2" data-entity-2="part4" data-source-line="17" id="msg5"><polygon fill="#333333" points="580.7119,216.8125,590.7119,220.8125,580.7119,224.8125,584.7119,220.8125" style="stroke:#333333;stroke-width:1;stroke-linejoin:miter;stroke-miterlimit:10;"/><line style="stroke:#333333;stroke-width:1.2;" x1="286.3379" x2="586.7119" y1="220.8125" y2="220.8125"/><text fill="#333333" font-family="sans-serif" font-size="12" lengthAdjust="spacing" textLength="198.5391" x="293.3379" y="215.9824">launch profile, navigate to target</text></g><g class="message" data-entity-1="part2" data-entity-2="part4" data-source-line="18" id="msg6"><polygon fill="#333333" points="580.7119,258.75,590.7119,262.75,580.7119,266.75,584.7119,262.75" style="stroke:#333333;stroke-width:1;stroke-linejoin:miter;stroke-miterlimit:10;"/><line style="stroke:#333333;stroke-width:1.2;" x1="286.3379" x2="586.7119" y1="262.75" y2="262.75"/><text fill="#333333" font-family="sans-serif" font-size="12" lengthAdjust="spacing" textLength="171.8438" x="293.3379" y="243.9512">inject username + password</text><text fill="#333333" font-family="sans-serif" font-size="12" lengthAdjust="spacing" textLength="125.3965" x="293.3379" y="257.9199">(CDP recipe, no LLM)</text></g><path d="M13,277.75 L76.5703,277.75 L76.5703,283.7188 L66.5703,293.7188 L9,293.7188 L9,281.75 A4,4 0 0 1 13,277.75" fill="#EEEEEE" style="stroke:#000000;stroke-width:1.5;"/><rect fill="none" height="105.8438" rx="4" ry="4" style="stroke:#000000;stroke-width:1.5;" width="647.0654" x="9" y="277.75"/><text fill="#000000" font-family="sans-serif" font-size="12" font-weight="700" lengthAdjust="spacing" textLength="22.5703" x="24" y="289.8887">opt</text><text fill="#000000" font-family="sans-serif" font-size="12" font-weight="700" lengthAdjust="spacing" textLength="142.793" x="91.5703" y="290.8887">[TOTP second factor]</text><g class="message" data-entity-1="part2" data-entity-2="part4" data-source-line="20" id="msg7"><polygon fill="#333333" points="580.7119,323.6563,590.7119,327.6563,580.7119,331.6563,584.7119,327.6563" style="stroke:#333333;stroke-width:1;stroke-linejoin:miter;stroke-miterlimit:10;"/><line style="stroke:#333333;stroke-width:1.2;" x1="286.3379" x2="586.7119" y1="327.6563" y2="327.6563"/><text fill="#333333" font-family="sans-serif" font-size="12" lengthAdjust="spacing" textLength="181.6699" x="293.3379" y="308.8574">inject code (engine-held seed,</text><text fill="#333333" font-family="sans-serif" font-size="12" lengthAdjust="spacing" textLength="153.2168" x="293.3379" y="322.8262">operational custody only)</text></g><path d="M19,344.6563 L19,373.6563 A4,4 0 0 0 23,377.6563 L633,377.6563 A4,4 0 0 0 637,373.6563 L637,350.6563 L627,340.6563 L23,340.6563 A4,4 0 0 0 19,344.6563" fill="#FEFFDD" style="stroke:#181818;stroke-width:0.5;"/><path d="M627,340.6563 L627,348.6563 A2,2 0 0 0 629,350.6563 L637,350.6563 L627,340.6563" fill="#FEFFDD" style="stroke:#181818;stroke-width:0.5;"/><text fill="#000000" font-family="sans-serif" font-size="12" lengthAdjust="spacing" textLength="158.9063" x="236.7407" y="356.7949">or the user types the code</text><text fill="#000000" font-family="sans-serif" font-size="12" lengthAdjust="spacing" textLength="173.584" x="236.7407" y="370.7637">from their own authenticator</text><g class="message" data-entity-1="part4" data-entity-2="part5" data-source-line="26" id="msg8"><polygon fill="#333333" points="736.8994,406.5625,746.8994,410.5625,736.8994,414.5625,740.8994,410.5625" style="stroke:#333333;stroke-width:1;stroke-linejoin:miter;stroke-miterlimit:10;"/><line style="stroke:#333333;stroke-width:1.2;" x1="592.7119" x2="742.8994" y1="410.5625" y2="410.5625"/><text fill="#333333" font-family="sans-serif" font-size="12" lengthAdjust="spacing" textLength="74.25" x="599.7119" y="405.7324">submit login</text></g><g class="message" data-entity-1="part5" data-entity-2="part4" data-source-line="27" id="msg9"><polygon fill="#333333" points="603.7119,434.5313,593.7119,438.5313,603.7119,442.5313,599.7119,438.5313" style="stroke:#333333;stroke-width:1;stroke-linejoin:miter;stroke-miterlimit:10;"/><line style="stroke:#333333;stroke-width:1.2;stroke-dasharray:2,2;" x1="597.7119" x2="747.8994" y1="438.5313" y2="438.5313"/><text fill="#333333" font-family="sans-serif" font-size="12" lengthAdjust="spacing" textLength="132.1875" x="609.7119" y="433.7012">authenticated session</text></g><g class="message" data-entity-1="part2" data-entity-2="part2" data-source-line="28" id="msg10"><line style="stroke:#333333;stroke-width:1.2;" x1="286.3379" x2="328.3379" y1="480.4688" y2="480.4688"/><line style="stroke:#333333;stroke-width:1.2;" x1="328.3379" x2="328.3379" y1="480.4688" y2="493.4688"/><line style="stroke:#333333;stroke-width:1.2;" x1="287.3379" x2="328.3379" y1="493.4688" y2="493.4688"/><polygon fill="#333333" points="297.3379,489.4688,287.3379,493.4688,297.3379,497.4688,293.3379,493.4688" style="stroke:#333333;stroke-width:1;stroke-linejoin:miter;stroke-miterlimit:10;"/><text fill="#333333" font-family="sans-serif" font-size="12" lengthAdjust="spacing" textLength="103.9688" x="293.3379" y="461.6699">zeroize plaintext;</text><text fill="#333333" font-family="sans-serif" font-size="12" lengthAdjust="spacing" textLength="197.9004" x="293.3379" y="475.6387">emit disclosure event (presence)</text></g><g class="message" data-entity-1="part2" data-entity-2="part1" data-source-line="29" id="msg11"><polygon fill="#333333" points="75.4727,517.4375,65.4727,521.4375,75.4727,525.4375,71.4727,521.4375" style="stroke:#333333;stroke-width:1;stroke-linejoin:miter;stroke-miterlimit:10;"/><line style="stroke:#333333;stroke-width:1.2;stroke-dasharray:2,2;" x1="69.4727" x2="285.3379" y1="521.4375" y2="521.4375"/><text fill="#333333" font-family="sans-serif" font-size="12" lengthAdjust="spacing" textLength="197.8652" x="81.4727" y="516.6074">hand over authenticated window</text></g><path d="M494,538.4375 L494,567.4375 A4,4 0 0 0 498,571.4375 L685,571.4375 A4,4 0 0 0 689,567.4375 L689,544.4375 L679,534.4375 L498,534.4375 A4,4 0 0 0 494,538.4375" fill="#FEFFDD" style="stroke:#181818;stroke-width:0.5;"/><path d="M679,534.4375 L679,542.4375 A2,2 0 0 0 681,544.4375 L689,544.4375 L679,534.4375" fill="#FEFFDD" style="stroke:#181818;stroke-width:0.5;"/><text fill="#000000" font-family="sans-serif" font-size="12" lengthAdjust="spacing" textLength="174.709" x="500" y="550.5762">saving + sync hard-disabled;</text><text fill="#000000" font-family="sans-serif" font-size="12" lengthAdjust="spacing" textLength="173.7949" x="500" y="564.5449">session cookie stays isolated</text><?plantuml-src NLF1Rjim3BthAxXUcc19bsuOCBJOWA4Di68TOdH9WG2zA39ZQvD5JvATkATznBvmNp9AiP5cEGIoI3s-nqUUm-Dx-Flx3zoWmugibWPoxPKXtpY4Lakef9K5vk3HUqqMHijtW7jPrGQl87EqhsW_lX3d0qG77pbU6wrq08U_6lG1NiFMeI-Xvd-q2lb0jELhGqK4nnPjk6QGiYiqMcIC79NhwX1Bocr0TtWo0L-I2rEZMtvM6wbjm7sOG8skqY74InbAHXfzldsOpcQN7zxCPcylcU4hRPLfSWGVEeCNkgcC4585Sd3sVV5b0JAlj3q3wM4bQka2AwYb3N0sjuMs-6H7Qf3eqRLQuJXbpq-pryr6VyKkXTQdeGSACYbYBLjj8kJ6qOxH3aZPQNhVNTZX1bPtAMCfn0gcds0ELq0r9gIKCpAoiQeSEZuMyvYsuhJ1Ww7t1u0rHm8rgXHhcFQ0VSi1ROk6qVaGN0UZxEwnnyiugo_KIvY0bQqkP426Wo1TWU6Og-qFL04QLcXbXMnuBRtVaSjP-irjnkHOR0GXkB__DXR4vPUBPSOTLcHps2Q31C3_a8hOoH4cPwObcZYWc4-UBFDsgSayoghnWV8Eo9fkp22Mc2QrF4oh2JSR-CVkXn8JGmXTZJvzHlGKtZgguersG3kUn8RFbXsI1rR852Eeu8F88iKbK_JDXcSnphQsOfdQ6vc_U7pSfqElOlUVqP5-nkDGNpzPZ3Wl5ZBj2Om6AvChlSsbP2v9sscTdROvxOGuQe_2FPjc2_R3TrRnMvTFkOpS6ColOxXVTaNqKyUDaPq7xSb4I36e_WS0?></g></svg>